# xmcd
#
# Track frame offsets:
# 150
# 16496
# 33789
#
# Disc length: 733 seconds
#
#
# Revision: 2
# Processed by: cddbd v1.5.1PL2 Copyright (c) Steve Scherf et al.
# Submitted via: FreeRIP 2.944 
#
DISCID=1702db03
DTITLE=above the line - above the line
DYEAR=2006
DGENRE=Salsa
TTITLE0=
TTITLE1=memory lane
TTITLE2=driving
EXTD=
EXTT0=
EXTT1=
EXTT2=
PLAYORDER=
